# xmcd CD database file
#
# Track frame offsets:
#	150
#	23272
#	48802
#	70962
#	95165
#	122780
#	149832
#	180287
#	207797
#	219905
#	231725
#	259242
#
# Disc length: 3779 seconds
#
# Revision: 3
# Processed by: cddbd v1.5.2PL0 Copyright (c) Steve Scherf et al.
# Submitted via: CDex 1.51
#
DISCID=af0ec10c
DTITLE=Tranquil Moods - Lake
DYEAR=1997
DGENRE=New Age
TTITLE0="Silbersee"  (C. Hausmann/ M. Stark)
TTITLE1="Nostalgia" (Yanni)
TTITLE2="Gaia" (Gaia)
TTITLE3="Island Of Green" (McDowell and Krell)
TTITLE4="Visiting" (W. Ackerman)
TTITLE5="Skytrak" (E. Fields)
TTITLE6="Lago Di Luna" (Star Sounds Orchestra)
TTITLE7="A Celtic Story" (J. Mark)
TTITLE8="Mellow In The Night" (S. Montanaro)
TTITLE9="High Blue Sky" (P. Pritchard)
TTITLE10="Round Four" (K. Horvath)
TTITLE11="Air Born" (M. Jones)
EXTD=YEAR: 1997
EXTT0=
EXTT1=
EXTT2=
EXTT3=
EXTT4=
EXTT5=
EXTT6=
EXTT7=
EXTT8=
EXTT9=
EXTT10=
EXTT11=
PLAYORDER=
